<svg width="42" height="42" viewBox="0 0 42 42" fill="none" xmlns="http://www.w3.org/2000/svg">
<path d="M21 3.5C17.5388 3.5 14.1554 4.52636 11.2775 6.44928C8.39967 8.37221 6.15665 11.1053 4.83212 14.303C3.50758 17.5007 3.16102 21.0194 3.83627 24.4141C4.51151 27.8087 6.17822 30.927 8.62564 33.3744C11.0731 35.8218 14.1913 37.4885 17.5859 38.1637C20.9806 38.839 24.4993 38.4924 27.697 37.1679C30.8947 35.8434 33.6278 33.6003 35.5507 30.7225C37.4736 27.8446 38.5 24.4612 38.5 21C38.5 18.7019 38.0474 16.4262 37.1679 14.303C36.2884 12.1798 34.9994 10.2507 33.3744 8.62563C31.7494 7.00061 29.8202 5.71157 27.697 4.83211C25.5738 3.95265 23.2981 3.5 21 3.5ZM21 7C24.5958 6.99857 28.0521 8.39113 30.6425 10.885C27.9685 12.4534 25.135 13.7322 22.19 14.7C20.7244 12.1744 19.044 9.77977 17.1675 7.5425C18.4134 7.18375 19.7035 7.00114 21 7ZM13.8075 9.0125C15.641 11.1099 17.2865 13.3644 18.725 15.75C15.2899 16.603 11.7644 17.0378 8.22501 17.045H7.59501C8.58761 13.6844 10.8044 10.8182 13.8075 9.0125ZM10.5 30.2925C8.22283 27.7353 6.97565 24.4241 7.00001 21C7.00001 20.825 7.00001 20.65 7.00001 20.4925H8.19001C12.3329 20.4555 16.4524 19.867 20.44 18.7425C21 19.81 21.525 20.9125 22.0325 22.05C19.3051 23.0115 16.765 24.4384 14.525 26.2675L14 26.6875C12.7525 27.8079 11.5831 29.0124 10.5 30.2925ZM21 35C18.2107 35.0062 15.4844 34.1706 13.1775 32.6025C14.0295 31.6253 14.9412 30.7019 15.9075 29.8375L16.4675 29.365C18.538 27.6236 20.9107 26.2771 23.4675 25.3925C24.5198 28.238 25.3392 31.1643 25.9175 34.1425C24.3422 34.7177 22.6771 35.008 21 35ZM29.1025 32.3925C28.53 29.744 27.7816 27.1365 26.8625 24.5875H27.4575C27.5265 24.5705 27.5985 24.5705 27.6675 24.5875H27.86H28.035H28.875C30.7166 24.5928 32.5444 24.9063 34.2825 25.515C33.3276 28.2981 31.5138 30.7063 29.1025 32.3925ZM28.875 21C28.5075 21 28.14 21 27.79 21C27.5634 20.9715 27.3341 20.9715 27.1075 21C26.6319 21.0292 26.1585 21.0877 25.69 21.175H25.515C25.0075 20.0025 24.4825 18.865 23.905 17.675C27.0386 16.5989 30.0482 15.1909 32.8825 13.475C34.2885 15.7314 35.023 18.3415 35 21C35 21.2975 35 21.595 35 21.8925C33.0167 21.2804 30.9505 20.9793 28.875 21Z" fill="white"/>
</svg>
