<svg width="42" height="42" viewBox="0 0 42 42" fill="none" xmlns="http://www.w3.org/2000/svg">
<path d="M21 16.66C20.1416 16.66 19.3025 16.9145 18.5888 17.3914C17.8751 17.8683 17.3188 18.5461 16.9904 19.3392C16.6619 20.1322 16.5759 21.0048 16.7434 21.8467C16.9109 22.6886 17.3242 23.4619 17.9312 24.0688C18.5381 24.6758 19.3114 25.0891 20.1533 25.2566C20.9952 25.4241 21.8678 25.3381 22.6608 25.0096C23.4539 24.6812 24.1317 24.1249 24.6086 23.4112C25.0855 22.6975 25.34 21.8584 25.34 21C25.34 20.4301 25.2277 19.8657 25.0096 19.3392C24.7915 18.8126 24.4718 18.3342 24.0688 17.9312C23.6658 17.5282 23.1874 17.2085 22.6608 16.9904C22.1343 16.7723 21.5699 16.66 21 16.66ZM38.3775 12.3725C38.3683 11.0211 38.1194 9.682 37.6425 8.4175C37.2912 7.4922 36.7478 6.65191 36.0479 5.95207C35.3481 5.25223 34.5078 4.70876 33.5825 4.3575C32.318 3.88056 30.9789 3.63171 29.6275 3.6225C27.37 3.5 26.705 3.5 21 3.5C15.295 3.5 14.63 3.5 12.3725 3.6225C11.0211 3.63171 9.682 3.88056 8.4175 4.3575C7.4922 4.70876 6.65191 5.25223 5.95207 5.95207C5.25223 6.65191 4.70876 7.4922 4.3575 8.4175C3.88056 9.682 3.63171 11.0211 3.6225 12.3725C3.5 14.63 3.5 15.295 3.5 21C3.5 26.705 3.5 27.37 3.6225 29.6275C3.64134 30.9837 3.88986 32.3269 4.3575 33.6C4.7072 34.5211 5.25023 35.3565 5.95 36.05C6.64684 36.754 7.48893 37.2975 8.4175 37.6425C9.682 38.1194 11.0211 38.3683 12.3725 38.3775C14.63 38.5 15.295 38.5 21 38.5C26.705 38.5 27.37 38.5 29.6275 38.3775C30.9789 38.3683 32.318 38.1194 33.5825 37.6425C34.5111 37.2975 35.3532 36.754 36.05 36.05C36.7498 35.3565 37.2928 34.5211 37.6425 33.6C38.119 32.3293 38.3678 30.9846 38.3775 29.6275C38.5 27.37 38.5 26.705 38.5 21C38.5 15.295 38.5 14.63 38.3775 12.3725ZM33.9325 26.3725C33.8763 27.4524 33.6459 28.5162 33.25 29.5225C32.9103 30.362 32.4052 31.1245 31.7649 31.7649C31.1245 32.4052 30.362 32.9103 29.5225 33.25C28.5066 33.6238 27.437 33.8306 26.355 33.8625C24.9725 33.8625 24.605 33.8625 21 33.8625C17.395 33.8625 17.0275 33.8625 15.645 33.8625C14.563 33.8306 13.4934 33.6238 12.4775 33.25C11.6097 32.9275 10.826 32.413 10.185 31.745C9.55092 31.1172 9.06123 30.3588 8.75 29.5225C8.37473 28.5077 8.17356 27.4368 8.155 26.355C8.155 24.9725 8.155 24.605 8.155 21C8.155 17.395 8.155 17.0275 8.155 15.645C8.17356 14.5632 8.37473 13.4923 8.75 12.4775C9.07249 11.6097 9.58698 10.826 10.255 10.185C10.8856 9.55434 11.6432 9.06516 12.4775 8.75C13.4934 8.37621 14.563 8.16937 15.645 8.1375C17.0275 8.1375 17.395 8.1375 21 8.1375C24.605 8.1375 24.9725 8.1375 26.355 8.1375C27.437 8.16937 28.5066 8.37621 29.5225 8.75C30.3903 9.07249 31.174 9.58698 31.815 10.255C32.4491 10.8828 32.9388 11.6412 33.25 12.4775C33.6238 13.4934 33.8306 14.563 33.8625 15.645C33.8625 17.0275 33.8625 17.395 33.8625 21C33.8625 24.605 33.985 24.9725 33.9325 26.355V26.3725ZM31.1325 13.3525C30.9241 12.7872 30.5956 12.2739 30.1696 11.8479C29.7436 11.4219 29.2303 11.0934 28.665 10.885C27.8888 10.616 27.0714 10.4856 26.25 10.5C24.885 10.5 24.5 10.5 21 10.5C17.5 10.5 17.115 10.5 15.75 10.5C14.9245 10.5081 14.1069 10.6621 13.335 10.955C12.7784 11.1539 12.2705 11.469 11.845 11.8794C11.4196 12.2897 11.0864 12.7859 10.8675 13.335C10.6134 14.1144 10.4892 14.9303 10.5 15.75C10.5 17.115 10.5 17.5 10.5 21C10.5 24.5 10.5 24.885 10.5 26.25C10.5173 27.0746 10.6711 27.8906 10.955 28.665C11.1634 29.2303 11.4919 29.7436 11.9179 30.1696C12.3439 30.5956 12.8572 30.9241 13.4225 31.1325C14.1692 31.4071 14.9549 31.5607 15.75 31.5875C17.115 31.5875 17.5 31.5875 21 31.5875C24.5 31.5875 24.885 31.5875 26.25 31.5875C27.0755 31.5794 27.8931 31.4254 28.665 31.1325C29.2303 30.9241 29.7436 30.5956 30.1696 30.1696C30.5956 29.7436 30.9241 29.2303 31.1325 28.665C31.4254 27.8931 31.5794 27.0755 31.5875 26.25C31.5875 24.885 31.5875 24.5 31.5875 21C31.5875 17.5 31.5875 17.115 31.5875 15.75C31.588 14.9236 31.4337 14.1045 31.1325 13.335V13.3525ZM21 27.685C20.1229 27.685 19.2545 27.512 18.4444 27.1758C17.6343 26.8396 16.8985 26.3469 16.2792 25.726C15.6598 25.105 15.169 24.3679 14.835 23.5569C14.501 22.746 14.3302 21.8771 14.3325 21C14.3325 19.6771 14.725 18.3839 15.4604 17.2842C16.1957 16.1845 17.2408 15.3277 18.4633 14.8222C19.6859 14.3168 21.0309 14.1854 22.3281 14.4448C23.6254 14.7041 24.8165 15.3425 25.7507 16.2792C26.6849 17.2159 27.3202 18.4087 27.5762 19.7066C27.8321 21.0045 27.6973 22.3492 27.1886 23.5704C26.6799 24.7916 25.8204 25.8344 24.7187 26.5669C23.6171 27.2993 22.3229 27.6885 21 27.685ZM28 15.6275C27.6131 15.5866 27.2551 15.4039 26.9949 15.1147C26.7348 14.8255 26.5908 14.4503 26.5908 14.0612C26.5908 13.6722 26.7348 13.297 26.9949 13.0078C27.2551 12.7186 27.6131 12.5359 28 12.495C28.3869 12.5359 28.7449 12.7186 29.0051 13.0078C29.2652 13.297 29.4092 13.6722 29.4092 14.0612C29.4092 14.4503 29.2652 14.8255 29.0051 15.1147C28.7449 15.4039 28.3869 15.5866 28 15.6275Z" fill="white"/>
</svg>
