<svg width="42" height="42" viewBox="0 0 42 42" fill="none" xmlns="http://www.w3.org/2000/svg">
<path d="M20.9901 3.5C17.5289 3.5 14.1454 4.52636 11.2676 6.44928C8.38972 8.37221 6.1467 11.1053 4.82217 14.303C3.49763 17.5007 3.15108 21.0194 3.82632 24.4141C4.50156 27.8087 6.16827 30.927 8.61569 33.3744C11.0631 35.8218 14.1813 37.4885 17.576 38.1637C20.9706 38.839 24.4893 38.4924 27.687 37.1679C30.8847 35.8434 33.6179 33.6003 35.5408 30.7225C37.4637 27.8446 38.4901 24.4612 38.4901 21C38.4902 18.7018 38.0377 16.4261 37.1583 14.3028C36.2789 12.1795 34.9899 10.2503 33.3649 8.62521C31.7398 7.00014 29.8105 5.71111 27.6872 4.83172C25.564 3.95233 23.2882 3.49981 20.9901 3.5ZM26.5542 30.0168C26.4887 30.1802 26.389 30.3276 26.2619 30.4493C26.1348 30.5709 25.9831 30.664 25.817 30.7222C25.651 30.7805 25.4744 30.8026 25.2991 30.787C25.1238 30.7714 24.9539 30.7186 24.8007 30.6319L20.05 26.9405L17.001 29.7535C16.9302 29.8058 16.8475 29.8394 16.7603 29.8513C16.6731 29.8632 16.5844 29.853 16.5022 29.8216L17.0867 24.5918L17.1054 24.6067L17.1174 24.5034C17.1174 24.5034 25.6661 16.7203 26.0144 16.3887C26.367 16.0579 26.2506 15.9862 26.2506 15.9862C26.2707 15.5828 25.618 15.9862 25.618 15.9862L14.2911 23.2733L9.57395 21.6668C9.57395 21.6668 8.84945 21.4069 8.7812 20.8355C8.70945 20.2685 9.59756 19.9605 9.59756 19.9605L28.3523 12.5099C28.3523 12.5099 29.8941 11.8229 29.8941 12.9605L26.5542 30.0168Z" fill="white"/>
</svg>
