<svg width="156" height="156" viewBox="0 0 156 156" fill="none" xmlns="http://www.w3.org/2000/svg">
<path d="M43.6 8.25C28.45 15.6 16.25 27.65 8.74999 42.55L6.04999 48L7.39999 49.4C9.04999 51.15 12.5 53.3 12.5 52.55C12.5 52.25 12.85 52 13.3 52C13.7 52 13.9 52.2 13.75 52.5C13.6 52.75 13.75 52.85 14.15 52.7C15 52.4 16 53.5 15.8 54.65C15.65 55.9 15.2 56.1 14.5 55.25C14.15 54.85 13.6 54.5 13.25 54.5C12.85 54.5 12.45 54.2 12.35 53.85C12.2 53.55 12.05 54.3 12.05 55.55L12 57.85L9.54999 58.2C6.94999 58.55 5.74999 58.3 4.34999 57.1C3.39999 56.25 3.24999 56.3 2.79999 57.85C2.49999 58.8 2.84999 59.2 4.94999 60.6C7.34999 62.15 8.19999 63.15 6.89999 62.85C5.84999 62.65 5.94999 64.25 7.04999 64.9C7.94999 65.5 8.19999 65.5 8.54999 64.95C8.74999 64.55 8.74999 64.05 8.49999 63.8C7.44999 62.75 8.04999 62.4 10.15 62.7C15.45 63.5 16 63.65 16 64.25C16 64.65 14.75 66.15 13.25 67.7C11.75 69.2 10.5 70.55 10.5 70.75C10.5 70.9 11.15 71.3 12 71.55C14.2 72.35 13.3 73.1 10.45 72.9C8.99999 72.8 8.04999 72.95 8.14999 73.25C8.19999 73.5 8.49999 73.7 8.79999 73.7C9.59999 73.6 10.6 75.85 9.99999 76.25C9.69999 76.45 9.49999 77.05 9.49999 77.65C9.44999 79.15 8.34999 80.55 7.54999 80.05C6.44999 79.35 5.04999 74.4 5.69999 73.35C6.14999 72.6 6.04999 72.25 5.04999 71.6C4.39999 71.1 3.24999 70.15 2.44999 69.45C1.69999 68.7 0.899992 68.25 0.749992 68.4C0.349992 68.8 0.449992 72.8 0.949992 74.1C1.14999 74.75 1.19999 76.8 0.949992 78.7C0.599992 81.65 0.649992 82.35 1.34999 83.1C1.79999 83.6 2.39999 84 2.69999 84C2.99999 84 3.74999 84.35 4.34999 84.75C5.24999 85.4 5.39999 85.75 4.99999 86.75C4.64999 87.7 5.14999 89.8 7.29999 96.35C10.7 106.65 12.15 112.8 12.2 116.8C12.25 120.3 14.05 123.7 15.6 123.2C16.25 123 16.55 123.3 16.75 124.35C16.95 125.1 17.3 126.2 17.55 126.8C18.25 128.15 23.45 134 24 134C24.25 134 24.5 132.7 24.6 131.1C24.7 128.95 24.95 128.25 25.5 128.25C26.1 128.25 26.35 129.2 26.6 132.5C26.95 136.55 27.05 136.8 28.75 138.3C29.75 139.2 31.45 140.5 32.55 141.3L34.55 142.65L35.3 141.6C35.7 141 36.45 140.5 36.95 140.5C37.45 140.5 38.15 140.15 38.5 139.75C39.15 139 40.05 138.95 40.55 139.7C40.75 139.9 41.35 139.85 41.9 139.55C43.1 138.9 45 138.85 46.35 139.35C47.1 139.65 47 139.75 45.75 140C44.05 140.3 43.95 141.65 45.55 143.15C46.3 143.85 46.4 144.2 45.9 145.25C45.45 146.25 45 146.5 43.4 146.5C42.15 146.5 41.35 146.25 41.2 145.75C40.85 144.95 40 144.7 40 145.45C40 146.05 42.45 147.45 46.4 149.15C49.15 150.35 49.45 150.4 49 149.55C48.25 148.1 47.85 143.4 48.4 142.05C48.8 140.95 48.95 141.3 49.9 144.8C50.5 147 51 149.3 51 149.85C51 150.45 51.35 151 51.75 151.2C52.3 151.4 52.5 151.1 52.5 149.85C52.5 148.95 52.2 147.9 51.9 147.55C51.35 147 51.4 146.85 51.9 146.65C52.4 146.45 52.4 146.25 51.95 145.7C50.75 144.25 51.95 144.45 53.25 145.9C54.1 146.9 54.9 147.3 55.4 147.15C55.95 146.9 56.1 147.05 55.85 147.65C55.65 148.2 55.75 148.35 56.3 148.15C57.1 147.85 57.25 148.55 56.5 149.3C56.15 149.65 56.5 150.15 57.5 150.9C58.3 151.55 59 152.35 59 152.7C59 153.2 59.35 153.3 60.1 153.1C60.75 152.95 61.05 153.05 60.85 153.35C60.4 154.05 64.7 154.85 72.15 155.55C81.45 156.45 93.15 155 103.25 151.7C105.45 150.95 107.6 150.05 108.05 149.7C108.45 149.3 109.1 149 109.4 149C110.2 149 110.15 148.35 109.4 147.55C108.85 147 108.9 146.85 109.4 146.65C109.7 146.5 109.9 146.2 109.7 145.95C109.55 145.7 109.65 145.5 109.95 145.5C110.2 145.5 110.5 145.1 110.65 144.6C110.75 144 111.05 144.25 111.75 145.65C112.7 147.6 112.9 147.7 114.2 147.2C115.35 146.75 115.2 146.15 113.65 145.4C112.05 144.65 111.35 142 112.7 142C113.1 142 113.55 142.2 113.7 142.45C114.05 143 116 142.55 116 141.95C116 141.7 116.65 141.5 117.45 141.5C118.45 141.5 119.3 141.05 120.2 139.95C121.4 138.5 121.95 136.5 121.1 136.5C120.9 136.5 120.45 136 120.05 135.4C119.35 134.25 119.2 134.35 123.1 132.2C124.75 131.3 124.9 131.05 124.25 130.5C123.25 129.7 123.3 129 124.35 129C124.8 129 125 128.85 124.85 128.65C124.65 128.5 124.7 128.1 124.95 127.8C125.6 126.95 126.05 122.5 125.5 122.5C125.2 122.5 125.35 121.8 125.75 121C126.2 120.15 126.4 119.25 126.25 119.05C126.1 118.8 125.85 117.05 125.7 115.2C125.55 113.3 125 110.1 124.45 108.05C123.4 103.9 123.3 102.9 124 104C124.7 105.1 124.6 103.9 123.75 101.5C122.8 98.85 122.8 98.5 123.75 98.5C124.65 98.5 124.65 98.25 124 96.95C123.7 96.45 123.65 96 123.85 96C124.3 96 125.95 98.55 126.95 100.75C127.3 101.55 127.8 102.6 128 103.05C128.8 104.6 129.95 111.4 130.3 116.15C130.45 118.85 130.75 120.95 130.9 120.8C131.05 120.6 131.35 119.4 131.55 118.1C132.35 113.35 132.65 112.25 133.3 111.75C133.85 111.35 133.7 110.2 132.5 105.5C131.65 102.35 131 99.6 131 99.35C131 99.1 131.45 99 132.05 99.15C132.6 99.3 133 99.25 132.9 99.1C132.8 98.9 132 97.3 131.1 95.6C130.2 93.85 129.7 92.55 130 92.75C130.3 92.9 131.25 94.45 132.15 96.1C134.75 101 136 102.85 136 101.8C136 101.15 131.3 92.3 130.75 91.9C130.5 91.7 130.25 91.35 130.2 91.15C130.1 90.3 127.95 86.05 127.5 85.75C127.2 85.6 127 84.95 127 84.3C127 83.7 126.8 83 126.55 82.7C126.3 82.45 125.75 81 125.25 79.5C124.75 78 124.2 76.5 124.05 76.25C123.85 75.95 122.85 72.8 121.8 69.25C117.6 54.75 117.25 53.8 114 46.75C113.25 45.1 112.3 42.9 111.95 41.85C111.35 40.15 111.35 39.85 112.1 39.45C113.8 38.5 111.85 34.85 106.75 29.7C104.5 27.4 98.65 23.5 97.5 23.5C97.25 23.5 96.8 23.05 96.55 22.55C96.15 21.85 96.2 21.45 96.75 21C97.45 20.45 97.45 20.25 96.65 19.4C96.2 18.9 95.55 18.55 95.2 18.7C94.8 18.85 94.65 18.6 94.75 17.9C94.9 17.35 94.85 17 94.65 17.2C94.1 17.75 93 16.4 93 15.05C92.95 14.05 92.45 13.45 90.65 12.35C88.15 10.85 86.35 10.85 85.2 12.4C84.7 13.05 84.65 12.8 84.8 11C84.85 9.75 84.8 9.2 84.65 9.75C84.5 10.3 84.05 11.2 83.7 11.75C83.05 12.65 83 12.65 83 11.8C83 11.3 82.75 11 82.4 11.15C82.05 11.25 81.8 11.65 81.9 11.95C82 12.45 81.4 12.7 80.2 12.55C79.9 12.5 78.7 13.5 77.55 14.75C75.95 16.45 75.2 16.95 74.45 16.75C73.95 16.55 72.8 16.4 72 16.4C71.15 16.35 70.35 16.15 70.2 15.9C70.05 15.65 69.65 15.7 69.25 16C68.5 16.6 66.85 16.1 67.3 15.4C67.5 15.1 67.15 15.15 66.55 15.45C66 15.8 65.5 16.25 65.5 16.55C65.5 16.85 65.25 16.9 64.95 16.7C64.45 16.4 63.35 16.75 60.55 18.25C59.95 18.55 58.9 19.6 58.35 20.55L57.3 22.25L59.05 20.35C60.95 18.4 62.9 17.8 62.3 19.35C62.05 20 62.3 19.9 63.3 19L64.65 17.75L63.75 19.1C63.3 19.9 62.55 20.5 62.15 20.5C61.75 20.5 61.6 20.7 61.75 21C61.9 21.25 61.85 21.5 61.6 21.5C61.35 21.5 60.1 22.55 58.8 23.85C57.55 25.2 56.5 26 56.5 25.65C56.5 25.3 56.95 24.8 57.5 24.5C58.05 24.2 58.35 23.7 58.2 23.4C57.95 23.05 58.1 23 58.5 23.25C58.9 23.5 59.05 23.45 58.85 23.1C58.3 22.3 57.15 22.7 56.05 24.1C55.45 24.8 55 25.55 55 25.75C55 25.95 54.6 26.65 54.05 27.3C53.55 27.95 52.95 29.3 52.75 30.35C52.4 32.35 50.35 36.75 49.55 37.25C49.25 37.4 49.05 35.7 49.05 32.65C49.1 27.1 48.5 6.35 48.3 6.15C48.25 6.05 46.1 7 43.6 8.25ZM86.85 27.1C89.05 28.1 92.95 31 93.55 32.1C93.85 32.65 94.65 34.7 95.3 36.55C95.9 38.45 96.9 40.65 97.45 41.4C98 42.2 98.6 43.45 98.8 44.3C99 45.1 99.7 46.8 100.35 48.1C101 49.45 101.35 50.5 101.1 50.5C100.9 50.5 99.8 49.65 98.75 48.6C96.45 46.45 95.8 46.1 92 45.15C82.65 42.85 81.7 42.85 79.6 45.1C78.5 46.3 78.5 46.4 79.25 49.6C80.15 53.45 81.3 56.4 82.4 57.7C83.25 58.6 87.65 61.05 88.35 61C88.7 60.95 90.95 61.15 98.05 61.7C98.2 61.75 98.95 62.3 99.65 63C100.85 64.15 101 64.6 101 67.9C101 73.35 99.2 75.25 94.45 74.9C92.55 74.75 92.25 74.9 92.25 75.7C92.25 77.2 91.2 77.2 89.8 75.65L88.5 74.25V75.55C88.5 76.5 88.8 76.95 89.6 77.15C90.55 77.4 90.6 77.55 89.95 78.3C89.4 78.95 89.4 79.2 89.9 79.35C90.2 79.5 90.5 79.9 90.5 80.25C90.5 80.65 90.9 81.2 91.4 81.45C92.05 81.85 91.85 81.9 90.55 81.65C89.3 81.45 88.95 81.5 89.2 81.9C89.7 82.75 89 82.6 87.25 81.45C85.45 80.3 85.1 80.15 83.5 79.8C82.8 79.65 80.9 78.5 79.3 77.25C77.05 75.55 75.95 75 74.55 75C73.55 75 72.05 74.8 71.2 74.55C70.15 74.25 69.2 74.3 68.15 74.75C65.65 75.8 60.5 79.55 60.5 80.3C60.5 81.25 62.2 81.2 64.1 80.2C65.3 79.55 66.45 79.45 68.95 79.7C75.5 80.3 82.5 82.6 82.5 84.2C82.5 84.5 83 85 83.65 85.25C84.75 85.75 84.95 87.2 84 88.15C83.35 88.85 81.65 87.6 81.25 86.15C80.8 84.3 80.1 83.5 78.85 83.5C78.3 83.5 77.45 83.15 76.95 82.7C76.45 82.25 75.8 82.05 75.45 82.25C75.15 82.5 73.1 82.6 70.9 82.55C67.4 82.45 66.85 82.55 65.75 83.6C63.25 85.95 64.6 87.5 69 87.5C71.7 87.5 72.75 87.8 76.7 89.8C79.2 91.05 81.25 92.05 81.25 92C81.25 91.65 84.55 93.85 84.7 94.35C84.85 94.65 84.55 95.4 84.05 95.95C82.9 97.25 80.65 97.35 76.9 96.3C73.5 95.35 68.2 95.55 65.3 96.75C60.4 98.8 54.25 95.2 52.5 89.25C52.2 88.15 51.8 82.35 51.7 76.35L51.4 65.5L54 56.35C56.45 47.7 57.1 46.2 58.15 46.85C58.4 47 58.3 47.3 57.95 47.55C57.4 47.9 57.4 48 57.9 48C58.35 48 58.35 48.3 57.75 49.2C57.35 49.8 56.95 51.55 56.85 53.05L56.75 55.75L59.5 55.65C61 55.55 61.95 55.65 61.6 55.8C60.1 56.5 61.85 57 65.65 57H69.7L72.05 54.5C73.85 52.55 74.65 51.2 75.45 48.5C76.6 44.75 76.5 44 75 44C74.5 44 73.95 43.8 73.8 43.55C73.65 43.3 71.95 42.95 70.1 42.75C66.5 42.4 61.35 43.35 59.1 44.85C58.45 45.25 57.8 45.45 57.65 45.35C57.4 45.05 59.9 40.05 61.4 37.85C62.7 35.9 66.3 32.2 68.35 30.65C71.3 28.4 77.2 26.55 81.6 26.55C83.7 26.5 86.1 26.8 86.85 27.1ZM55.75 29.2C54.7 30.8 54.15 30.55 55.05 28.9C55.4 28.3 55.65 27.5 55.55 27.25C55.5 26.95 55.7 27 56 27.3C56.45 27.75 56.4 28.2 55.75 29.2ZM47 31.8C47 32.2 46.75 32.4 46.5 32.25C46.2 32.05 46.1 31.7 46.25 31.45C46.7 30.75 47 30.9 47 31.8ZM43.9 46.1C43.9 47.15 43.5 48.35 42.95 48.95C42.4 49.5 42.2 50.1 42.5 50.25C42.8 50.45 42.65 51.35 42.15 52.65C41.2 55.1 40.2 56.4 40.7 54.5C40.9 53.8 41.15 52.9 41.25 52.5C41.35 52.1 41.45 50.05 41.45 47.95C41.5 44.2 41.55 44.1 42.7 44.2C43.8 44.25 43.95 44.5 43.9 46.1ZM30.7 46.8C31.65 47.15 31.8 50 30.85 50C30.3 50 28.5 47.55 28.5 46.8C28.5 46.4 29.7 46.4 30.7 46.8ZM28.8 69.75C28.95 70.15 28.75 70.8 28.35 71.25C27.75 71.85 27.7 72.35 28.05 73.6C28.7 75.9 28.6 76.45 27.65 76.3C27.2 76.2 26.65 75.6 26.45 74.95C26.3 74.25 25.85 73.25 25.5 72.65C24.5 71.1 25.5 69 27.25 69C27.95 69 28.65 69.35 28.8 69.75ZM36.2 76.35C36 77.4 35.75 78.35 35.65 78.5C35.25 78.95 34.5 77.25 34.5 75.85C34.5 74.8 34.75 74.5 35.5 74.5C36.45 74.5 36.5 74.7 36.2 76.35ZM26.05 80.55C27.15 81.35 27.5 81.95 27.5 83.3C27.5 84.8 27.35 85 26.15 85C23.75 85 23.3 84.4 23.45 81.1C23.5 79.25 24.05 79.1 26.05 80.55ZM8.99999 81.75C9.84999 82.75 9.19999 83.5 7.44999 83.5C5.79999 83.5 5.44999 82.35 6.89999 81.55C8.04999 80.85 8.29999 80.9 8.99999 81.75ZM92 83.4C92 83.95 89.95 85.1 89.6 84.8C89.45 84.6 89.75 84.15 90.3 83.75C91.35 82.95 92 82.8 92 83.4ZM13.85 88.3C15.35 88.75 17.4 89.65 18.35 90.3C19.5 91.05 20.85 91.5 22.1 91.5C23.15 91.5 24.8 91.8 25.7 92.2C27.35 92.9 27.55 93.2 28.25 96.2C28.55 97.6 28.6 97.6 30.85 97.3C32.15 97.15 33.6 96.6 34.1 96.15C34.6 95.7 35.1 95.45 35.2 95.55C35.35 95.7 35.7 97.55 35.95 99.75C36.25 101.95 36.65 104.25 36.8 104.85C37.05 105.85 36.9 106 35.85 106C35.15 106 34.4 105.75 34.25 105.5C34.05 105.2 33.05 104.55 31.95 104C29 102.5 28.2 103.15 27.8 107.35C27.4 111.8 28.8 116.7 30.45 116.4C31.4 116.2 32.15 111.75 31.7 108.85C31.4 107.05 31.45 107 32.95 107C33.9 107 34.65 107.3 34.85 107.75C35.15 108.6 37.7 110.1 38.1 109.7C38.25 109.6 38.65 110.15 39 111C39.35 111.85 39.9 112.45 40.2 112.35C40.5 112.25 41.05 112.6 41.4 113.2C41.95 114.1 42 113.9 41.85 111.35C41.75 109.8 41.85 108.5 42 108.5C42.7 108.5 42.9 111.8 42.5 115.5C42.3 117.5 42.2 119.4 42.3 119.7C42.4 120 41.85 120.65 41 121.1C40 121.7 39.5 122.35 39.5 123.15C39.5 123.85 39.15 124.65 38.7 125.05C38 125.6 38.05 125.75 39 126.25C40.05 126.8 40.05 126.8 38.8 127.95L37.55 129.15L37.05 127.95C36.8 127.3 36.15 126.3 35.55 125.8C34.65 125 34.3 124.95 33.25 125.4C31.9 126 31.7 127 32.5 128.5C32.9 129.2 33.4 129.35 35.1 129.2C36.3 129.1 36.95 129.15 36.65 129.3C36.3 129.45 36 129.9 36 130.3C36 131 34.4 131.55 32.8 131.35C31.7 131.25 31.15 132.6 31.05 135.6C31 136.6 30.8 137.55 30.55 137.7C29.8 138.2 29.4 135.55 29.25 129.4C29.15 126.2 28.85 123.15 28.55 122.55C27.35 120.35 24.55 120.95 22.7 123.75C22.25 124.45 21.6 125 21.3 125C20.65 125 17.35 117.9 16.75 115.25C16.55 114.4 15.65 111.05 14.7 107.75C13.8 104.45 12.8 99.95 12.45 97.75C12.15 95.55 11.55 93.2 11.1 92.5C10.65 91.8 10.15 90.4 9.99999 89.4C9.54999 87.15 9.74999 87.1 13.85 88.3ZM126.4 94.9C126.7 95.75 126.9 96.5 126.8 96.5C126.45 96.5 124 92.5 124 91.9C124 90.95 125.75 93.15 126.4 94.9ZM58.6 100.25C59.85 101.9 61.7 104 62.8 104.9C66.25 107.8 70.3 110.85 71.55 111.5C72.2 111.85 72.9 112.4 73.1 112.7C73.3 112.95 74.8 113.2 76.45 113.25C78.45 113.25 79.55 113.45 79.75 113.9C80 114.65 77.4 117.25 74.95 118.75C72.9 119.95 72.4 122.5 73.8 124.05C74.5 124.85 75.05 124.95 77.4 124.65C79.85 124.4 80.15 124.45 79.85 125.15C79.65 125.7 79.8 126 80.3 126C80.7 126 80.9 126.2 80.75 126.5C80.6 126.75 80.7 127 81 127C81.95 127 84.55 123.9 84.3 123.15C84.15 122.8 84.2 122.5 84.45 122.5C84.7 122.5 85.5 121.6 86.25 120.5C87.25 119.05 88 118.5 88.95 118.5C90.65 118.5 91.3 120.05 91.8 125.25C92.4 131.8 92.4 133.45 91.7 134.75C91.15 135.8 91.15 136 91.75 136C92.25 136 92.4 136.5 92.2 138C92.05 139.1 92.2 140.45 92.5 141C92.9 141.8 92.8 142.2 91.9 143.1C91.15 143.85 91.1 144.1 91.65 143.85C92.55 143.5 92.75 143.7 93.2 145.6C93.65 147.45 92.8 147.85 84.85 149.3C76.7 150.75 71.7 150.85 67.45 149.5C63.65 148.35 54.55 142.55 51.95 139.6C49.75 137.15 49.05 136.15 50 136.75C50.5 137.05 50.6 136.95 50.35 136.25C50.15 135.8 50.25 135.05 50.55 134.7C50.85 134.35 51.15 133.4 51.2 132.65C51.25 131.9 51.7 129 52.15 126.25C52.9 121.7 53.9 114.35 55.55 101.6C55.9 99.05 56.2 97.05 56.3 97.1C56.35 97.2 57.4 98.6 58.6 100.25ZM37.85 103.6C37.7 104 37.55 103.85 37.55 103.3C37.5 102.75 37.65 102.45 37.8 102.65C37.95 102.8 38 103.25 37.85 103.6ZM39.6 107.75C39.75 108.45 39.65 109 39.45 109C39.2 109 39 108.7 39 108.3C39 107.9 38.85 107.2 38.65 106.7C38.45 106.15 38.5 105.95 38.85 106.15C39.15 106.35 39.5 107.05 39.6 107.75ZM45.15 113.75C44.8 115.35 44.7 115.95 44.6 118.1C44.55 118.9 44.25 119.5 43.9 119.5C43.6 119.5 43.5 119.35 43.65 119.15C43.85 119 43.75 118.55 43.45 118.15C43 117.65 43.05 117.5 43.5 117.5C43.95 117.5 44 117 43.8 115.75C43.6 114.8 43.6 112.6 43.8 110.85L44.2 107.75L44.85 110C45.25 111.3 45.35 112.9 45.15 113.75ZM131.35 113.6C131.2 114 131.05 113.85 131.05 113.3C131 112.75 131.15 112.45 131.3 112.65C131.45 112.8 131.5 113.25 131.35 113.6ZM124.8 117.95C125 121.35 124.45 122.75 123.8 120.35C123.15 117.9 123.55 113.4 124.35 114.2C124.5 114.3 124.65 116 124.8 117.95ZM119 135.5C119 135.75 118.5 136 117.9 136C116.95 136 116.9 135.9 117.5 135.5C118.45 134.85 119 134.85 119 135.5ZM120 138.05C120 138.2 119.55 138.75 119 139.25C117.9 140.25 117.6 139.65 118.65 138.5C119.15 137.9 119.1 137.9 118.5 138.35C117.3 139.2 114.9 139.45 113.55 138.85C112.3 138.35 112.4 138.3 114.75 138C117.8 137.6 120 137.6 120 138.05ZM52.25 143C52.75 143.55 53.05 144 52.9 144C52.75 144 52.25 143.55 51.75 143C51.25 142.45 50.95 142 51.1 142C51.25 142 51.75 142.45 52.25 143ZM58.5 149.3C58.5 149.7 58.3 149.9 58 149.75C57.75 149.6 57.5 149.1 57.5 148.7C57.5 148.3 57.75 148.1 58 148.25C58.3 148.4 58.5 148.9 58.5 149.3ZM60.75 150.5C60.9 150.75 60.7 151 60.3 151C59.9 151 59.4 150.75 59.25 150.5C59.1 150.2 59.3 150 59.7 150C60.1 150 60.6 150.2 60.75 150.5ZM88 152.45C88 152.7 87.65 153 87.25 153.2C86.8 153.35 86.65 153.8 86.85 154.3C87.1 155.05 86.95 155.1 85.5 154.85C84.6 154.65 82.75 154.5 81.35 154.5C78 154.5 78.75 153.95 83.4 152.95C88.25 151.9 88 151.9 88 152.45Z" fill="white"/>
<path d="M70.9 61.4C69.85 61.5 69.2 62.2 67.95 64.4C66.4 67.2 66.4 67.2 67.25 68.85C68.15 70.5 69.15 70.95 69.75 70C70.25 69.2 71.4 70 71.95 71.55C72.5 73.1 73 73.3 74.4 72.55C74.95 72.25 76.05 72.3 77.4 72.65C79.2 73.15 79.75 73.1 81.2 72.3C82.4 71.7 83.35 71.5 84.45 71.75C85.65 72 86 71.9 86 71.3C86 69.9 83.95 65.35 82.65 63.8L81.35 62.25L81.65 63.6C81.85 64.4 82.15 65.55 82.3 66.25C82.45 66.95 82.4 67.5 82.15 67.5C81.6 67.5 80 64.85 80 63.9C80 62.5 78.3 61.65 75.25 61.4C73.6 61.3 71.65 61.3 70.9 61.4Z" fill="white"/>
<path d="M58.5 85.85C58.5 87 59.25 87.8 59.65 87.15C59.8 86.9 59.6 86.3 59.2 85.75C58.5 84.85 58.5 84.85 58.5 85.85Z" fill="white"/>
<path d="M79 130.6C79 131 78.25 131.25 76.85 131.25C74.4 131.3 72 131.85 72.05 132.4C72.1 132.6 72.05 132.85 72 133C71.6 134.05 71.85 136.5 72.35 136.5C73 136.5 73 138.2 72.35 138.8C71.7 139.45 72 141.4 72.75 141.7C73.55 142 76.85 139.25 76.65 138.45C76.55 138.2 76.75 138 77 138C77.25 138 77.45 137.8 77.4 137.6C77.3 137.35 78 136.4 78.95 135.5C79.9 134.5 80.4 133.7 80.05 133.6C79.6 133.45 79.6 133.25 80.05 132.7C80.45 132.2 80.5 131.8 80.05 131.35C79.75 130.95 79.65 130.5 79.85 130.35C80 130.15 79.9 130 79.6 130C79.25 130 79 130.3 79 130.6Z" fill="white"/>
<path d="M135.85 103.45C135.7 104.05 135.9 104.55 136.3 104.7C137.1 105 137.2 104.1 136.55 103.1C136.25 102.55 136.1 102.65 135.85 103.45Z" fill="white"/>
<path d="M136 106.45C136 106.75 136.2 107.1 136.5 107.25C136.8 107.4 136.85 107.2 136.7 106.8C136.35 105.9 136 105.75 136 106.45Z" fill="white"/>
<path d="M125.75 130.25C125.9 132.4 126.7 133.15 127.15 131.5C127.3 130.95 127.25 130.5 127.05 130.5C126.8 130.5 126.45 130 126.15 129.35C125.7 128.4 125.65 128.55 125.75 130.25Z" fill="white"/>
<path d="M38.3 141.2C38.5 141.7 38.15 142.2 37.3 142.55C36.6 142.9 36 143.35 36 143.6C36 144.15 36.35 144.1 37.55 143.35C38.4 142.85 38.7 142.9 39.35 143.75C40.1 144.7 40.1 144.7 39.8 143.35C39.5 142.2 39.65 142 40.6 142C41.5 141.95 41.6 141.85 41 141.55C40.6 141.3 39.75 140.95 39.15 140.8C38.25 140.5 38.05 140.6 38.3 141.2Z" fill="white"/>
<path d="M117.35 143.35C116.75 143.9 117 145 117.7 145C118.05 145 118.65 144.7 118.95 144.3C119.4 143.75 119.35 143.55 118.7 143.3C117.75 142.95 117.75 142.95 117.35 143.35Z" fill="white"/>
</svg>
